HIERARCHY
ROOT Hips
{
	OFFSET 0.00000 0.00000 0.00000
	CHANNELS 6 Xposition Yposition Zposition Zrotation Yrotation Xrotation 
	JOINT LHipJoint
	{
		OFFSET 0 0 0
		CHANNELS 3 Zrotation Yrotation Xrotation
		JOINT LeftHip
		{
			OFFSET 1.44960 -1.75505 0.85172
			CHANNELS 3 Zrotation Yrotation Xrotation
			JOINT LeftKnee
			{
				OFFSET 2.40573 -6.60971 0.00000
				CHANNELS 3 Zrotation Yrotation Xrotation
				JOINT LeftAnkle
				{
					OFFSET 2.58773 -7.10974 0.00000
					CHANNELS 3 Zrotation Yrotation Xrotation
					JOINT LeftToe
					{
						OFFSET 0.18252 -0.50147 1.77316
						CHANNELS 3 Zrotation Yrotation Xrotation
						End Site
						{
							OFFSET 0.00000 -0.00000 0.92990
						}
					}
				}
			}
		}
	}
	JOINT RHipJoint
	{
		OFFSET 0 0 0
		CHANNELS 3 Zrotation Yrotation Xrotation
		JOINT RightHip
		{
			OFFSET -1.40744 -1.75505 0.85172
			CHANNELS 3 Zrotation Yrotation Xrotation
			JOINT RightKnee
			{
				OFFSET -2.43714 -6.69600 0.00000
				CHANNELS 3 Zrotation Yrotation Xrotation
				JOINT RightAnkle
				{
					OFFSET -2.51650 -6.91404 0.00000
					CHANNELS 3 Zrotation Yrotation Xrotation
					JOINT RightToe
					{
						OFFSET -0.25383 -0.69740 1.96384
						CHANNELS 3 Zrotation Yrotation Xrotation
						End Site
						{
							OFFSET -0.00000 -0.00000 1.04244
						}
					}
				}
			}
		}
	}
	JOINT lowerback
	{
		OFFSET 0 0 0
		CHANNELS 3 Zrotation Yrotation Xrotation
		JOINT Chest
		{
			OFFSET 0.00579 2.14458 -0.24367
			CHANNELS 3 Zrotation Yrotation Xrotation
			JOINT Chest2
			{
				OFFSET 0.05899 2.16316 -0.04515
				CHANNELS 3 Zrotation Yrotation Xrotation
				JOINT lowerneck
				{
					OFFSET 0 0 0
					CHANNELS 3 Zrotation Yrotation Xrotation
					JOINT Neck
					{
						OFFSET -0.01650 1.59577 0.24841
						CHANNELS 3 Zrotation Yrotation Xrotation
						JOINT Head
						{
							OFFSET -0.01016 1.63072 -0.17782
							CHANNELS 3 Zrotation Yrotation Xrotation
							End Site
							{
								OFFSET -0.00250 1.64111 -0.08717
							}
						}
					}
				}
				JOINT LeftCollar
				{
					OFFSET 0 0 0
					CHANNELS 3 Zrotation Yrotation Xrotation
					JOINT LeftShoulder
					{
						OFFSET 3.17745 0.95174 -0.45729
CHANNELS 3 Zrotation Xrotation Yrotation
						JOINT LeftElbow
						{
OFFSET 0 -4.934850 0.000000
CHANNELS 3 Zrotation Xrotation Yrotation
							JOINT LeftWrist
							{
OFFSET 0 -3.417190 -0.000000
CHANNELS 3 Zrotation Xrotation Yrotation
								JOINT lhand
								{
									OFFSET 0 0 0
CHANNELS 3 Zrotation Xrotation Yrotation
									JOINT LFingers
									{
OFFSET 0 -0.624100 -0.000000
CHANNELS 3 Zrotation Xrotation Yrotation
										End Site
										{
OFFSET 0 -0.503170 -0.000000
										}
									}
								}
								JOINT LThumb
								{
OFFSET 0 0.000000 0.000000
CHANNELS 3 Zrotation Xrotation Yrotation
									End Site
									{
OFFSET 0 -0.510850 0.510850
									}
								}
							}
						}
					}
				}
				JOINT RightCollar
				{
					OFFSET 0 0 0
					CHANNELS 3 Zrotation Yrotation Xrotation
					JOINT RightShoulder
					{
						OFFSET -2.87924 1.13038 -0.75204
CHANNELS 3 Zrotation Xrotation Yrotation
						JOINT RightElbow
						{
OFFSET 0 -5.220340 0.000000
CHANNELS 3 Zrotation Xrotation Yrotation
							JOINT RightWrist
							{
OFFSET 0 -3.418090 -0.000000
CHANNELS 3 Zrotation Xrotation Yrotation
								JOINT rhand
								{
									OFFSET 0 0 0
CHANNELS 3 Zrotation Xrotation Yrotation
									JOINT RFingers
									{
OFFSET 0 -0.775340 -0.000000
CHANNELS 3 Zrotation Xrotation Yrotation
										End Site
										{
OFFSET 0 -0.625100 -0.000000
										}
									}
								}
								JOINT RThumb
								{
OFFSET 0 0.000000 0.000000
CHANNELS 3 Zrotation Xrotation Yrotation
									End Site
									{
OFFSET 0 -0.634640 0.634640
									}
								}
							}
						}
					}
				}
			}
		}
	}
}
MOTION
Frames: 8
Frame Time: 0.008333333333333333
0.496200 17.544500 19.543500 0.159000 -1.909800 11.825700 0.000000 0.000000 0.000000 -16.797100 -6.731000 -11.649900 0.452800 4.316900 11.969900 0.374200 0.237500 -11.644200 0.026300 -1.046000 -2.875500 0.000000 0.000000 0.000000 18.956700 7.874900 -14.129500 -0.626200 -5.063800 14.090600 -0.100900 -7.360100 -12.501500 -0.406800 -4.094700 11.343300 12.812700 -3.267000 13.139300 13.475000 -2.526800 6.121700 7.746500 -1.252600 -0.654600 -4.542200 -11.933300 -8.092300 -0.710600 -16.109300 30.301300 -1.453400 -7.729500 11.504200 -0.000000 -0.000000 0.000000 -0.522500 0.607400 -44.469700 35.411800 -45.104000 15.104400 10.053100 7.900100 -41.727700 0.000000 0.000000 0.000000 -7.125000 0.000000 0.000000 -37.790100 68.634700 22.594200 -0.000000 -0.000000 0.000000 -29.900300 -19.054200 3.754500 -13.473000 -21.976400 -2.627700 -39.945800 -17.648600 -26.876900 0.000000 0.000000 0.000000 7.125000 0.000000 -0.000000 -5.717900 -3.339900 -6.071000
0.490844 17.547249 19.538499 0.785416 -1.539377 11.690204 0.000000 0.000000 0.000000 -17.467608 -6.863829 -11.222396 0.408132 4.101198 11.361482 0.349983 0.032653 -11.187508 0.031058 -1.105839 -3.040377 0.000000 0.000000 0.000000 18.322611 7.584594 -14.699180 -0.728064 -5.451595 15.201316 -0.139523 -7.191108 -12.974063 -0.315195 -3.601338 9.958484 12.778913 -3.299698 13.510302 13.488449 -2.497860 6.212419 7.799228 -1.237627 -0.756379 -4.240209 -11.776130 -8.367571 -1.146851 -15.825920 30.713478 -1.648230 -7.604093 11.639774 0.000000 0.000000 0.000000 -0.602106 0.737276 -44.289861 35.854257 -45.412541 15.418629 8.563501 7.005892 -41.902391 0.000000 0.000000 0.000000 -7.125000 0.000000 0.000000 -39.621868 68.294782 23.522902 0.000000 0.000000 0.000000 -29.795816 -19.321298 2.315232 -13.507348 -22.026081 -2.640598 -42.744837 -17.614031 -26.692368 0.000000 0.000000 0.000000 7.125000 0.000000 0.000000 -7.346731 -4.167610 -7.926190
0.482693 17.549697 19.525728 0.973919 -1.173759 11.752432 0.000000 0.000000 0.000000 -17.575534 -7.033812 -11.471844 0.414385 4.131983 11.448305 0.344378 -0.344959 -10.968236 0.004282 -0.420618 -1.155703 0.000000 0.000000 0.000000 18.133479 7.479117 -15.233549 -0.790615 -5.675868 15.846934 -0.145504 -7.264189 -13.157427 -0.309648 -3.547976 9.811399 12.924835 -3.458484 13.668000 13.689507 -2.643603 6.221487 7.988168 -1.311698 -0.816201 -4.737532 -11.491292 -8.483616 -1.159611 -15.334270 31.055462 -1.543968 -7.427783 11.838052 0.000000 0.000000 0.000000 -0.886716 0.947450 -43.929610 36.131032 -45.603080 15.616077 10.028605 7.514078 -42.090404 0.000000 0.000000 0.000000 -7.125000 0.000000 0.000000 -38.460537 68.898337 23.257272 0.000000 0.000000 0.000000 -29.974047 -19.582035 2.076374 -13.773251 -22.409632 -2.741144 -44.211105 -18.605974 -27.199467 0.000000 0.000000 0.000000 7.125000 0.000000 0.000000 -8.039997 -5.348676 -8.838622
0.467379 17.548861 19.511545 1.683081 -1.041076 11.726823 0.000000 0.000000 0.000000 -18.286998 -6.945142 -11.680933 0.416678 4.143357 11.480347 0.362562 -0.474099 -11.218352 0.000530 -0.144961 -0.398291 0.000000 0.000000 0.000000 17.339716 7.732775 -15.717966 -0.891666 -6.018234 16.837499 -0.162317 -7.501229 -13.697469 -0.349538 -3.797963 10.508974 12.513238 -3.378270 13.998275 13.603177 -2.510000 6.211416 8.114952 -1.252746 -1.008247 -4.422178 -11.389761 -8.751780 -1.657836 -15.097789 31.239015 -1.759514 -7.339816 11.880568 0.000000 0.000000 0.000000 -0.763771 0.999951 -44.041798 36.338250 -45.744411 15.764274 9.448149 7.034176 -41.675106 0.000000 0.000000 0.000000 -7.125000 0.000000 0.000000 -38.321128 68.404390 22.754408 0.000000 0.000000 0.000000 -30.017938 -19.685833 1.740704 -13.772684 -22.408534 -2.740994 -45.722778 -21.285976 -28.821665 0.000000 0.000000 0.000000 7.125000 0.000000 0.000000 -8.433143 -7.896219 -9.608422
0.453811 17.535922 19.508623 2.222570 -0.853842 11.549983 0.000000 0.000000 0.000000 -18.834007 -6.857613 -11.646523 0.422620 4.172392 11.562128 0.375433 -0.749910 -11.335211 0.009084 0.348452 0.957799 0.000000 0.000000 0.000000 16.808443 7.837909 -16.089842 -1.014898 -6.408709 17.975259 -0.189542 -7.582277 -14.211747 -0.280673 -3.404066 9.406242 12.204343 -3.233716 14.203016 13.626846 -2.329854 6.315822 8.293797 -1.166225 -1.005113 -4.277162 -11.385818 -9.123396 -1.993131 -15.007645 31.363833 -1.918935 -7.313046 11.957245 0.000000 0.000000 0.000000 -0.870075 0.891866 -44.451993 36.484822 -45.843724 15.869322 9.431158 6.928348 -41.662770 0.000000 0.000000 0.000000 -7.125000 0.000000 0.000000 -38.317006 68.389691 22.739658 0.000000 0.000000 0.000000 -30.166139 -19.678004 0.872369 -13.855692 -22.527971 -2.772608 -46.798698 -19.915107 -29.416407 0.000000 0.000000 0.000000 7.125000 0.000000 0.000000 -8.850011 -9.080145 -10.248587
0.451544 17.510906 19.522451 2.284410 -0.448150 11.501282 0.000000 0.000000 0.000000 -18.983509 -6.362434 -11.556486 0.415180 4.136003 11.459426 0.382268 -1.190019 -11.324582 0.077768 -1.798478 -4.949183 0.000000 0.000000 0.000000 16.800042 7.332271 -16.893066 -1.171379 -6.869776 19.330235 -0.244941 -7.119293 -14.550052 -0.273171 -3.361628 9.287218 12.459357 -3.376627 13.973408 13.577694 -2.547923 6.407683 8.113513 -1.261409 -0.776734 -3.981292 -11.098198 -9.344408 -2.224105 -14.583322 31.519745 -2.010772 -7.116885 12.008014 0.000000 0.000000 0.000000 -0.653037 0.830461 -44.467801 36.685151 -45.978572 16.013209 9.768314 7.361336 -42.265471 0.000000 0.000000 0.000000 -7.125000 0.000000 0.000000 -39.044199 68.944789 23.687731 0.000000 0.000000 0.000000 -30.106697 -19.672863 1.937781 -13.956057 -22.671883 -2.811123 -48.027063 -20.310927 -29.185543 0.000000 0.000000 0.000000 7.125000 0.000000 0.000000 -9.577080 -9.396555 -11.156451
0.433291 17.494992 19.526678 2.137990 -0.237020 11.338031 0.000000 0.000000 0.000000 -18.755884 -6.231468 -11.293280 0.397335 4.047167 11.209420 0.368513 -1.485282 -11.046293 0.057675 -1.546901 -4.255127 0.000000 0.000000 0.000000 16.980481 7.794943 -17.141360 -1.313287 -7.258623 20.483875 -0.275357 -7.389228 -15.256803 -0.284384 -3.420511 9.452636 12.631266 -3.377733 14.067926 13.611988 -2.517707 6.487431 8.058707 -1.241511 -0.743790 -3.775712 -10.936459 -9.649614 -2.502508 -14.311180 31.787371 -2.139132 -6.998390 12.129681 0.000000 0.000000 0.000000 -0.633516 0.839281 -44.539539 36.938407 -46.147681 16.195677 9.748166 7.360496 -42.247568 0.000000 0.000000 0.000000 -7.125000 0.000000 0.000000 -39.031496 68.925018 23.662749 0.000000 0.000000 0.000000 -29.985269 -19.357598 2.290118 -14.166867 -22.972681 -2.892964 -47.944546 -20.036011 -29.834205 0.000000 0.000000 0.000000 7.125000 0.000000 0.000000 -9.342277 -10.114429 -10.971764
0.425150 17.491210 19.527741 2.915043 -0.172475 11.075869 0.000000 0.000000 0.000000 -19.635222 -6.156776 -10.851065 0.376726 3.941882 10.913332 0.356994 -1.672901 -10.828148 0.084418 -1.863712 -5.129422 0.000000 0.000000 0.000000 16.131961 7.803283 -17.251782 -1.398536 -7.481168 21.148903 -0.291724 -7.473952 -15.566521 -0.270231 -3.343809 9.237496 11.951788 -3.279383 14.231475 13.303983 -2.449513 6.517679 8.072740 -1.212858 -0.804909 -3.542808 -10.834379 -10.129197 -2.639399 -14.191122 32.444238 -2.276199 -6.911480 12.460008 0.000000 0.000000 0.000000 -0.451205 0.864526 -44.838830 37.015727 -46.198882 16.251471 7.919037 6.329735 -42.163444 0.000000 0.000000 0.000000 -7.125000 0.000000 0.000000 -40.732314 68.283006 24.253020 0.000000 0.000000 0.000000 -29.667348 -19.260176 1.060474 -14.043490 -22.796838 -2.844970 -47.803343 -18.928519 -29.750598 0.000000 0.000000 0.000000 7.125000 0.000000 0.000000 -9.291504 -9.947826 -10.888485
